<svg xmlns="http://www.w3.org/2000/svg" version="1.1" xmlns:xlink="http://www.w3.org/1999/xlink" xmlns:svgjs="http://svgjs.dev/svgjs" width="2000" height="2000" viewBox="0 0 2000 2000"><g transform="matrix(1,0,0,1,-0.9999999999998863,-0.9999999999998863)"><svg viewBox="0 0 280 280" data-background-color="#d9bca9" preserveAspectRatio="xMidYMid meet" height="2000" width="2000" xmlns="http://www.w3.org/2000/svg" xmlns:xlink="http://www.w3.org/1999/xlink"><g id="tight-bounds" transform="matrix(1,0,0,1,0.13999999999998636,0.13999999999998636)"><svg viewBox="0 0 279.72 279.72" height="279.72" width="279.72"><g><svg viewBox="0 0 279.72 279.72" height="279.72" width="279.72"><g><svg viewBox="0 0 279.72 279.72" height="279.72" width="279.72"><g id="textblocktransform"><svg viewBox="0 0 279.72 279.72" height="279.72" width="279.72" id="textblock"><g><svg viewBox="0 0 279.72 279.72" height="279.72" width="279.72"><g transform="matrix(1,0,0,1,73.92936372216631,106.2569321921622)"><svg viewBox="0 0 131.8612725556674 67.20613561567565" height="67.20613561567565" width="131.8612725556674"><g><svg xmlns="http://www.w3.org/2000/svg" xmlns:xlink="http://www.w3.org/1999/xlink" version="1.1" x="0" y="0" viewBox="1.468999981880188 26.495162963867188 96.53199005126953 49.19975280761719" enable-background="new 0 0 100 100" xml:space="preserve" height="67.20613561567565" width="131.8612725556674" class="icon-o-0" data-fill-palette-color="accent" id="o-0"><g fill="#000000" data-fill-palette-color="accent"><path d="M62.863 50.685c0 0-2.341 2.032-5.389 1.545-3.048-0.485-3.052-1.939-3.024-2.193 0.027-0.253 0.772-1.781 0.551-2.886-0.221-1.104-0.784-2.485-1.923-3.686-1.025-1.079-0.802-1.824-0.505-2.188 0.052-0.062 0.64-0.232 0.971-0.066 1.523-0.398 4.979-1.312 5.842-0.975 1.016 0.397 1.28 0.909 1.611 2.366 0.332 1.458 0.332 2.684 0.563 3.147 0.232 0.464 1.59 1.226 1.624 3.048C63.217 50.619 62.863 50.685 62.863 50.685z" fill="#000000" data-fill-palette-color="accent"></path><path d="M63.301 50.675c0 0 0.347-0.653 0.319-1.888-0.039-1.821-1.391-2.583-1.623-3.048-0.232-0.463-0.337-1.381-0.668-2.839-0.332-1.458-0.435-2.086-1.123-2.498 0.361-0.749 6.282-1.237 6.87-1.064 0.729 0.216 0.878 0.315 0.977 1.309 0.101 0.994 0.133 3.015 0 3.479-0.132 0.464-0.682 0.742 0.045 1.701 0.81 1.068 0.982 2.76 0.982 3.798 0 1.038-0.519 1.612-1.534 2.143-1.016 0.529-2.011 1.016-3.269 1.016C63.019 52.783 62.671 51.629 63.301 50.675z" fill="#000000" data-fill-palette-color="accent"></path><path d="M69.494 48.896c-0.082-0.891-0.082-1.954-0.825-2.971-0.637-0.872-0.537-1.126-0.251-1.7 0.264-0.528 0.131-1.032 0.115-2.087-0.016-0.952-0.174-2.309-0.436-2.683 0.452-0.214 1.922-0.298 3.158-0.276 1.237 0.022 2.65 0.221 3.004 0.53s0.707 1.325 0.596 2.496c-0.11 1.17-0.993 2.716-1.28 3.4-0.288 0.685 0.529 5.035-0.311 5.941-0.838 0.905-1.788 1.214-2.672 1.236-0.883 0.022-1.894-0.744-2.142-1.082C68.76 51.392 69.627 50.337 69.494 48.896z" fill="#000000" data-fill-palette-color="accent"></path><path d="M73.642 51.768c0.684-1.325 0.037-5.522 0.324-6.206 0.287-0.685 1.171-2.23 1.281-3.401 0.11-1.171-0.243-2.187-0.597-2.496 0.757-0.132 4.71 0.928 5.506 2.098 0 0.464 0.021 1.568-0.111 2.452-0.132 0.883-0.662 3.092-2.075 3.247-0.177 0.618 1.453 2.013 1.347 3.555-0.11 1.612-1.281 2.475-2.65 2.475C75.298 53.49 73.906 52.65 73.642 51.768z" fill="#000000" data-fill-palette-color="accent"></path><path d="M79.632 51.248c0.065-1.854-1.448-2.986-1.271-3.605 1.413-0.155 1.943-2.363 2.076-3.247 0.132-0.883 0.109-1.988 0.109-2.452 0.327-0.072 1.752 0.641 2.646 1.667s4.273 4.224 4.075 4.854c-0.166 0.182-0.796 0.404-1.243 0.823-0.447 0.418-0.843 0.876-1.257 0.992-0.414 0.116-0.962 0.006-1.128 0.14-0.165 0.132 0.06 1.733-0.47 2.561-0.53 0.828-0.905 2.375-1.319 2.375s-0.695-0.514-2.037-0.746-1.728-0.933-1.756-1.192C78.224 53.368 79.585 52.559 79.632 51.248z" fill="#000000" data-fill-palette-color="accent"></path><path d="M82.094 55.549c0.325-0.192 0.744-1.527 1.273-2.355 0.531-0.827 0.328-2.458 0.493-2.591 0.166-0.132 0.712 0 1.127-0.116 0.413-0.116 0.812-0.596 1.258-1.015 0.447-0.419 1.077-0.641 1.243-0.823 0.375 0.215 5.973 7.437 6.404 8.927-0.347-0.051-0.703-0.06-0.928 0.166-0.183 0.183-0.508 0.861-0.74 0.927-0.231 0.066-0.486 0.034-0.486 0.034 0.034 0.596-0.188 1.522-0.541 1.567-0.353 0.044-0.838-0.11-0.971 0s-0.707 0.155-0.905 0.354c-0.199 0.199-0.42 0.553-0.53 0.486s-0.712-0.618-1.516-1.061c-0.804-0.441-2.459-1.479-3.497-2.54C82.739 56.449 82.094 55.549 82.094 55.549z" fill="#000000" data-fill-palette-color="accent"></path><path d="M91.425 60.325c0.198-0.116 0.456-0.943 0.423-1.541 0 0 0.232 0.066 0.464 0s0.553-0.807 0.762-0.96c0.12-0.088 0.175-0.155 0.407-0.155 0.843 0.237 4.453 6.731 4.52 11.998-0.529-0.597-1.061-1.822-1.557-2.684-0.497-0.861-3.048-4.273-3.578-4.737 0.017-0.183 0.017-0.4-0.181-0.559C92.437 61.489 91.606 61.195 91.425 60.325z" fill="#000000" data-fill-palette-color="accent"></path><path d="M89.066 61.087c0.052-0.044 0.146-0.166 0.346-0.365 0.198-0.198 0.737-0.212 0.869-0.322 0.133-0.11 0.621 0.042 0.976 0.014-0.011 0.225 0.813 1.254 1.344 1.42 0.148 0.353 0.176 0.573-0.083 0.96-0.26 0.387-0.271 0.938-0.396 0.916-0.128-0.022-0.365-0.867-0.945-0.767-0.033 0.364-0.378 1.382-1.01 1.392-0.241 0.003-0.981-0.829-1.027-1.31C89.084 62.451 89.183 61.347 89.066 61.087z" fill="#000000" data-fill-palette-color="accent"></path><path d="M92.833 62.5c-0.007-0.216 5.116 6.398 5.034 8.503-0.022 0.574 0.155 1.48-0.463 1.767-0.619 0.287-2.275-0.552-3.755-3.6-1.479-3.047-1.898-4.208-1.898-5.672 0.172 0.169 0.293 0.42 0.434 0.391 0.142-0.029 0.342-0.757 0.421-0.927C92.67 62.824 92.836 62.635 92.833 62.5z" fill="#000000" data-fill-palette-color="accent"></path><path d="M91.425 63.207c0.204 0.066-0.006 0.883 0.237 1.745 0.242 0.86 1.099 3.387 2.274 5.233 1.083 1.7 1.908 2.345 2.617 2.761 0.883 0.519 0.739 1.392 0.673 1.744-0.066 0.354-0.198 1.104-0.905 0.994-0.706-0.11-2.513-1.877-3.608-3.688-1.096-1.812-2.045-4.438-2.31-5.39-0.266-0.949-0.525-2.191-0.525-2.191 0.217 0.094 0.53 0.127 0.934-0.254C91.067 63.92 91.22 63.141 91.425 63.207z" fill="#000000" data-fill-palette-color="accent"></path><path d="M52.142 41.586c0.129-0.396-3.279-1.169-4.781-1.424-1.502-0.254-4.153-0.515-5.3-0.741-0.673-0.132-2.562-0.348-2.86-0.447 0.298 0.216 0.298 0.381 0.397 0.464-0.878-0.132-3.76-0.861-4.472-0.911 0.199 0.183 0.364 0.431 0.381 0.48-0.547-0.066-2.419-0.497-2.849-0.48 0.149 0.166 0.265 0.348 0.315 0.464-0.332-0.083-2.021-0.415-2.336-0.464 0.149 0.15 0.265 0.282 0.265 0.299-0.514-0.033-1.292-0.215-1.524-0.182 0.05 0.1 0.116 0.232 0.182 0.331-0.232-0.116-1.109-0.166-1.242-0.149 0.115 0.116 0.148 0.249 0.148 0.282-0.265-0.116-1.226-0.249-1.358-0.249 0.149 0.132 0.166 0.265 0.199 0.332-0.216 0-1.756 0.033-1.855 0.049 0.066 0.116 0.166 0.182 0.232 0.265-0.215-0.033-1.689-0.016-1.839-0.066 0.099 0.132 0.116 0.182 0.182 0.249-0.364 0-2.468 0.298-2.468 0.298s1.921 0.348 2.369 0.249c0 0.066-0.116 0.232-0.182 0.282 0.249 0 1.043-0.116 1.309-0.149-0.083 0.1-0.066 0.1-0.1 0.183 0.199 0.083 3.114-0.132 4.108 0.166 0.994 0.298 2.009 0.461 1.822 1.557-0.132 0.773-0.177 1.347-0.618 1.17-0.442-0.176-1.899-0.201-2.12 0.033 0.2 0.096 0.32 0.2 0.32 0.2-0.397 0.176-1.82 0.828-2.749 0.828-0.663 0-2.429-0.596-2.628-1.28-0.265 0-0.972 0.265-1.7 0.154-0.729-0.11-1.237 0.177-1.634-0.088-0.398-0.265-1.608-0.841-1.59-0.839 0.101 0.019 1.435 0.709 1.524 0.933-0.381-0.116-3.961-1.858-4.008-1.866 0.039 0.055 4.075 1.917 3.876 1.933-0.149 0.013-1.705-0.607-2.74-0.962-0.366-0.125-0.648-0.156-0.821-0.131-0.086 0.014 0.433-0.066 1.137 0.254 1.358 0.617 3.436 1.35 2.639 1.303-0.757-0.044-2.117-0.418-3.014-0.099-0.356 0.127-0.641 0.285-0.961 0.689-0.116 0.133 0.441-0.474 0.734-0.607 0.58-0.263 1.51-0.242 3.788 0.099 0.497 0.033 2.12 0.59 2.518 0.527 0.397-0.062 1.623 0.566 2.22 0.566 0.596 0 2.186 0.199 3.644-0.199 0.96-0.231 1.424-0.397 1.59-0.696-0.033 0.298-0.033 0.696-0.663 0.944s-1.358 0.514-2.849 0.58c-1.491 0.066-5.102-0.968-6.195-1.196-1.093-0.228-1.557-0.168-1.756 0-0.199 0.169 1.292 1.593 6.459 2.389 0.1-0.221 0.475-0.354 1.005-0.354-0.53 0.155-1.215 0.972-0.994 1.237 0.154-0.066 0.436 0.091 0.811 0.003-0.07 0.17-0.071 0.494 0.172 0.538 0.243 0.044 1.137-0.276 1.601-0.917 0.332 0.11 0.736-0.243 0.884-0.243 0.11 0 0.353-0.11 0.464 0.177 0.11 0.288 0.972 0.508 1.281 0.53-0.243 0.177-0.442 0.341-0.552 0.38 0.685-0.005 0.795-0.083 1.237 0 0.441 0.083 3.345 1.276 3.886 1.342 2.386 0.292 4.903 2.044 8.26 3.103 3.357 1.061 5.3 1.337 7.597 0.454 2.298-0.884 2.96-2.606 3.048-2.783 0.089-0.177 0.699-1.371 0.738-2.69 0.039-1.32-0.534-2.456-1.345-3.51C52.558 43.108 51.854 42.47 52.142 41.586z" fill="#000000" data-fill-palette-color="accent"></path><path d="M30.543 41.995c0.126 0.125 0.1 0.96-0.166 1.049-0.265 0.088-1.016-0.249-1.347-0.249s-0.782 0.181-1.263 0.181c0.203-0.131 0.289-0.167 0.311-0.476 0.022-0.31-0.175-0.557-0.417-0.711 0.32 0.134 0.548 0.042 0.747 0.042s1.02-0.399 1.218-0.443C29.825 41.343 30.322 41.774 30.543 41.995z" fill="#000000" data-fill-palette-color="accent"></path><path d="M27.532 42.584c0-0.453-0.624-1.2-1.495-1.2-0.871 0-1.901 0.227-1.901 1.011s1.46 1.219 2.045 1.219C26.767 43.615 27.532 43.209 27.532 42.584z" fill="#000000" data-fill-palette-color="accent"></path><path d="M78.058 53.866c0.199 0.242 0.663 0.573 1.567 0.904-0.176 0.586-0.927 1.634-2.031 1.634-0.662-0.066-0.431-0.331-0.032-0.552-0.486 0.154-1.911 0.132-1.801-0.496C75.871 54.727 76.865 53.998 78.058 53.866z" fill="#000000" data-fill-palette-color="accent"></path><path d="M75.656 55.604c0.133 0.165 0.231 0.215 0.348 0.266-0.183 0.182-0.634 1.634-0.634 2.512 0 0.877 0.634 1.921 0.634 2.092-0.53 0.139-1.16-1.159-1.16-2.12S75.209 56.118 75.656 55.604z" fill="#000000" data-fill-palette-color="accent"></path><path d="M76.069 55.986c0.021-0.062 0.341 0.066 0.432 0-0.022 0.176-0.166 1.302 0.21 2.461 0.376 1.16 1.192 3.114 1.943 3.037 0.375-0.089 0.53-0.763 0.706-0.763 0.178 0 0.343 0.586 0.089 0.906-0.254 0.319-0.872 0.508-1.579 0.11S74.977 59.21 76.069 55.986z" fill="#000000" data-fill-palette-color="accent"></path><path d="M73.708 52.173c0.204 0.275 0.606 0.61 1.168 0.947-0.177 0.585-1.398 2.261-2.499 2.335-0.854 0.058-0.15-0.488-0.271-0.463-0.485 0.155-1.122-0.34-1.115-0.795C71.003 53.372 72.19 52.379 73.708 52.173z" fill="#000000" data-fill-palette-color="accent"></path><path d="M70.991 54.616c0.088 0.122 0.254 0.254 0.309 0.275-0.155 0.178-0.1 0.475-0.486 0.828-0.386 0.354-0.452 2.044-0.44 2.253 0.01 0.21 0.055 1.458 0.055 1.668-0.453-0.288-0.607-1.104-0.597-1.954 0.011-0.851 0.1-1.538 0.53-2.021C70.902 55.058 70.726 54.716 70.991 54.616z" fill="#000000" data-fill-palette-color="accent"></path><path d="M71.211 55.555c0.19-0.237 0.122-0.508 0.188-0.52 0.066-0.01 0.309 0.045 0.331 0.089 0.021 0.044-0.045 0.949-0.056 1.446-0.01 0.497 0.232 2.639 0.675 3.401 0.44 0.762 1.214 1.8 1.401 1.8s0.21-0.607 0.453-0.641 0.088 0.695-0.154 0.839c-0.244 0.145-0.828 0.244-1.524-0.319-0.695-0.563-1.436-1.855-1.646-3.026C70.67 57.454 70.626 56.283 71.211 55.555z" fill="#000000" data-fill-palette-color="accent"></path><path d="M69.18 52.495c0.442 0.244 0.574 0.245 0.729 0.289-0.176 0.33-0.397 1.031-1.037 1.611-0.495 0.447-1.789 1.192-1.502 0.221-0.266 0.088-1.812 0.354-1.59-0.485 0.221-0.84 2.187-2.01 2.76-2.054C68.737 52.187 69.18 52.495 69.18 52.495z" fill="#000000" data-fill-palette-color="accent"></path><path d="M65.758 54.544c0.126 0.013 0.341 0.251 0.225 0.49-0.115 0.238-0.86 1.68-0.878 2.739-0.017 1.061 0.282 1.657 0.166 1.69-0.116 0.032-0.642-0.331-0.627-1.789s0.547-2.25 0.687-2.582C65.47 54.759 65.581 54.528 65.758 54.544z" fill="#000000" data-fill-palette-color="accent"></path><path d="M65.515 56.493c0.035-0.538 0.701-1.423 0.712-1.634 0.148-0.017 0.5-0.021 0.635-0.105 0.032 0.066 0.077 0.29-0.089 0.339-0.165 0.048-0.42 0.181-0.402 0.412 0.017 0.232 0.143 0.281 0.209 1.159 0.066 0.879 0.133 2.07 0.745 3.049 0.613 0.977 1.077 1.738 1.408 1.755s0.68-0.812 0.812-0.812c0.132 0 0.381 0.597-0.101 0.994-0.479 0.397-0.762 0.432-1.159 0.432s-0.977-0.184-1.424-0.879C66.414 60.507 65.35 59.028 65.515 56.493z" fill="#000000" data-fill-palette-color="accent"></path><path d="M62.869 51.049c-0.116 0.547-0.05 1.315 0.657 1.735-0.199 0.44-1.083 1.545-1.943 1.589-0.133-0.066-0.11-0.198 0-0.287-0.244 0.089-1.361 0.177-1.377-0.286C60.191 53.335 60.771 51.845 62.869 51.049z" fill="#000000" data-fill-palette-color="accent"></path><path d="M60.147 53.942c0.11 0.144 0.242 0.276 0.354 0.298-0.1 0.177-0.851 1.899-0.906 2.474-0.055 0.575 0.354 2.264 0.243 2.44s-0.839-0.508-0.706-2.275C59.336 55.564 59.76 54.473 60.147 53.942z" fill="#000000" data-fill-palette-color="accent"></path><path d="M61.252 57.005c-0.015-1.499-0.029-1.76-0.161-1.986-0.086-0.145 0.049-0.515-0.139-0.646-0.038-0.025-0.331-0.057-0.358-0.093-0.09 0.225-0.081 0.431-0.206 0.934-0.126 0.502-0.242 1.229-0.171 2.207 0.072 0.979 0.188 2.154 0.449 2.818 0.26 0.664 0.762 1.911 1.866 2.01 1.104 0.099 1.983-0.367 1.857-1.238-0.104-0.299-0.597 0.235-0.799 0.458-0.17 0.188-0.907 0.879-1.391-0.539C61.773 59.798 61.339 59.154 61.252 57.005z" fill="#000000" data-fill-palette-color="accent"></path><path d="M57.648 52.306c0 0 0.99 0.196 1.662 0-0.05 0.862-1.468 2.575-2.917 2.624-0.259-0.074 0.187-0.517 0.262-0.557-0.471 0.234-1.34 0.557-1.216-0.287S57.325 52.711 57.648 52.306z" fill="#000000" data-fill-palette-color="accent"></path><path d="M55.2 54.506c0.161-0.009 0.464 0.229 0.529 0.424 0.066 0.194-0.396 0.592-0.529 0.901-0.133 0.309-0.618 2.628-2.474 2.341-0.839-0.177 0.221-0.97 0.994-1.821C54.692 55.389 54.911 54.52 55.2 54.506z" fill="#000000" data-fill-palette-color="accent"></path><path d="M56.073 54.825c0.126-0.138 0.088 0.376 0.176 0.586 0.089 0.21 0.188 0.607-0.088 1.966-0.276 1.357-0.817 4.395-0.375 4.77 0.607 0.465 1.004-0.345 1.191-0.275 0.244 0.088-0.253 1.126-1.038 1.094-0.783-0.034-1.401-0.741-1.38-2.485 0.022-1.745 0.453-3.654 0.695-4.229C55.499 55.676 55.939 54.969 56.073 54.825z" fill="#000000" data-fill-palette-color="accent"></path><path d="M54.275 50.216c0.122 0.506 0.407 1.116 1.152 1.536-0.249 0.375-1.729 3.21-2.017 3.184-0.286-0.026-0.375-0.98-0.286-1.243 0.309-0.219 1.39-1.434 1.435-1.765s-0.044-0.662-0.133-0.872c-0.088-0.209-0.27-0.308-0.464-0.276C54.129 50.614 54.275 50.216 54.275 50.216z" fill="#000000" data-fill-palette-color="accent"></path><path d="M53.885 50.835c0.138 0 0.44 0.044 0.514 0.364 0.073 0.32 0.097 0.624-0.093 0.935-0.188 0.312-1.197 1.372-1.298 1.501 0.009 0.128-0.079 0.264-0.109 0.396-0.146 0.091-0.686 0.887-1.336 1.016 0.257-0.485 0.934-1.236 1.025-1.528 0.092-0.294 0.051-0.971 0.015-1.178C52.694 52.233 53.583 51.457 53.885 50.835z" fill="#000000" data-fill-palette-color="accent"></path><path d="M52.849 54.346c0.049 0.232 0.165 0.439 0.397 0.7-0.116 0.393-0.911 2.431-1.325 2.695-0.149-0.397-0.514-0.331-0.778-0.331C51.076 56.863 52.136 54.81 52.849 54.346z" fill="#000000" data-fill-palette-color="accent"></path><path d="M51.562 57.559c0.303 0.083 0.358 0.348 0.309 0.447-0.049 0.1-2.385 5.565-2.401 6.262-0.271-0.137-0.58-0.067-0.878 0.082-0.149-0.463 0.794-2.259 1.474-4.141C50.693 58.47 50.894 57.377 51.562 57.559z" fill="#000000" data-fill-palette-color="accent"></path><path d="M49.437 64.35c0.144 0.149 1.226 1.286 1.722 1.751 0.498 0.463 1.436 1.037 1.392 1.49-0.065 0.166-0.055 0.364-0.275 0.376-0.222 0.01-2.088-1.613-2.552-2.088-0.463-0.475-1.06-1.292-1.015-1.369S48.906 64.233 49.437 64.35z" fill="#000000" data-fill-palette-color="accent"></path><path d="M52.618 68.088c0.055 0.188 3.219 1.029 3.554 0.552 0.222-0.314-3.235-0.949-3.4-0.938C52.605 67.712 52.618 68.088 52.618 68.088z" fill="#000000" data-fill-palette-color="accent"></path><path d="M56.327 68.584c0.052 0.129 2.042-0.121 2.417-0.685C58.127 67.922 56.205 68.286 56.327 68.584z" fill="#000000" data-fill-palette-color="accent"></path><path d="M52.038 52.691c0.05 0.226-0.164 1.03-1.107 1.472-0.944 0.44-1.423 0.641-1.774 1.019-0.352 0.377-1.453 1.916-1.906 2.217 0.26-0.481 1.361-2.337 1.811-2.761 0.387-0.363 0.365-0.904 0.66-0.972C49.984 53.61 51.45 53.208 52.038 52.691z" fill="#000000" data-fill-palette-color="accent"></path><path d="M51.139 54.205c0.033 0.224-0.24 0.822-0.596 1.543s-1.035 1.562-1.329 1.746c0.111-0.457 0.06-0.688-0.01-1.045-0.051-0.266-0.203-0.702-0.213-0.955C49.184 55.301 49.562 54.835 51.139 54.205z" fill="#000000" data-fill-palette-color="accent"></path><path d="M48.875 55.97c0.095 0.41 0.19 0.504 0.221 0.868 0.031 0.362 0 0.646 0 0.804-0.158 0.237-1.152 1.987-1.436 2.161-0.142 0.127-0.142-0.457-0.331-0.583-0.189-0.127-0.284-0.189-0.284-0.379S48.678 56.015 48.875 55.97z" fill="#000000" data-fill-palette-color="accent"></path><path d="M47.005 59.275c0.153-0.109 0.399 0.221 0.399 0.707-0.22 0.442-3.887 4.771-4.152 5.278-0.088 0.044-0.95 0.155-0.795-0.155C42.612 64.797 45.167 60.584 47.005 59.275z" fill="#000000" data-fill-palette-color="accent"></path><path d="M42.546 65.438c0.086-0.179 0.508-0.065 0.707-0.121 0.133 0.121 1.341 1.289 2.948 2.22 1.279 0.739 1.615 0.969 1.417 1.112-0.131 0.094-0.014 0.301-0.213 0.278C47.206 68.905 42.237 66.078 42.546 65.438z" fill="#000000" data-fill-palette-color="accent"></path><path d="M47.67 68.755c0.154-0.148 0.734 0.05 1.035 0.225 0.301 0.174 2.536 1.54 2.885 1.921 0.032 0.1-0.066 0.216-0.24 0.183C51.175 71.05 47.206 69.17 47.67 68.755z" fill="#000000" data-fill-palette-color="accent"></path><path d="M51.678 71.036c0.32-0.132 2.723 0.214 2.938 0.375-0.435 0.212-1.943 0.122-2.274 0C52.01 71.29 51.622 71.103 51.678 71.036z" fill="#000000" data-fill-palette-color="accent"></path><path d="M47.404 53.687c0.325 0.092 1.338 0.106 1.586 0.062-0.104 0.41-0.866 1.348-1.232 1.538-0.366-0.029-0.806-0.133-1.069-0.073-0.264 0.058-1.992 1.449-2.725 1.465 0.381-0.264 0.659-0.484 1.099-0.909 0.439-0.425 0.967-0.586 1.274-0.849C46.646 54.657 47.211 53.813 47.404 53.687z" fill="#000000" data-fill-palette-color="accent"></path><path d="M46.893 55.245c0.201 0.019 0.815 0.039 0.881 0.193-0.022 0.121-0.811 0.988-1.109 1.176-0.299 0.188-0.321-0.032-0.321-0.055s-0.028-0.948 0-1.06C46.373 55.389 46.75 55.233 46.893 55.245z" fill="#000000" data-fill-palette-color="accent"></path><path d="M46.173 55.653c0 0.282 0.132 0.879 0 1.127 0 0.165-0.298 0.243-0.497 0.618-0.199 0.375-1.044 1.386-1.326 1.651-0.282 0.265-0.795 0.597-0.828 0.414s0-0.48-0.232-0.563c-0.231-0.082-0.43-0.082-0.414-0.198C42.894 58.586 45.743 55.87 46.173 55.653z" fill="#000000" data-fill-palette-color="accent"></path><path d="M43.297 59.056c0.239 0.163 0.132 0.397 0.11 0.596s-0.839 1.237-1.126 1.7c-0.287 0.464-1.701 1.612-2.01 2.076-0.309 0.464-0.53 0.973-0.574 1.104-0.154-0.066-0.861 0.012-0.839-0.183 0.022-0.193 1.664-2.531 2.289-3.405C41.773 60.071 42.692 58.64 43.297 59.056z" fill="#000000" data-fill-palette-color="accent"></path><path d="M38.968 64.665c-0.016-0.116 0.613-0.166 0.845 0 0.232 0.165 2.087 1.54 3.114 2.385s3.627 2.965 3.627 3.097c0 0.133-0.282 0.415-0.414 0.382s-2.219-1.743-3.925-2.984C40.509 66.304 39.027 65.095 38.968 64.665z" fill="#000000" data-fill-palette-color="accent"></path><path d="M46.554 70.373c0.132-0.068 0.839-0.032 1.48 0.31 0.64 0.343 1.259 0.54 1.723 0.59s1.358 0.636 1.567 0.956c-0.275-0.121-1.303-0.817-1.844-0.772-0.541 0.044-0.369 0.265-0.775 0.265s-1.853-0.608-2.084-0.905C46.389 70.517 46.498 70.402 46.554 70.373z" fill="#000000" data-fill-palette-color="accent"></path><path d="M49.568 71.538c0.365-0.006 1.248 0.48 1.523 0.69-0.153 0.188-1.633-0.11-1.998-0.508C49.248 71.676 49.568 71.538 49.568 71.538z" fill="#000000" data-fill-palette-color="accent"></path><path d="M46.478 53.687c-0.201 0.215-0.594 0.617-0.857 0.867-0.37 0.35-0.878 1.188-1.067 1.188 0.355-0.42 0.314-0.819 0.368-1.072-0.366 0.365-0.698 0.808-1.051 0.852 0.089-0.574-0.021-0.954 0.221-1.316 0.221-0.119 0.885-0.619 1.055-0.842C45.504 53.484 46.169 53.662 46.478 53.687z" fill="#000000" data-fill-palette-color="accent"></path><path d="M44.644 53.18c0.088 0.057 0.265 0.104 0.342 0.125-0.166 0.142-0.475 0.505-0.895 0.749-0.177 0.209-0.309 0.396-0.519 0.44-0.42 0.111-1.7 1.061-1.988 1.248 0.066-0.265 1.126-1.424 1.911-1.723C44.069 53.832 44.321 53.553 44.644 53.18z" fill="#000000" data-fill-palette-color="accent"></path><path d="M43.738 54.554c0 0.321-0.016 0.929 0 1.188-0.282 0.293-2.203 2.049-2.517 2.496-0.1-0.299-0.232-0.768-0.415-0.84C41.039 56.995 43.606 54.646 43.738 54.554z" fill="#000000" data-fill-palette-color="accent"></path><path d="M40.724 57.477c0.225-0.033 0.429 0.729 0.43 0.86-0.165 0.133-2.086 1.922-2.633 2.485-0.546 0.563-1.689 2.285-1.772 2.302-0.083 0.017-0.778-0.065-1.109 0.083-0.066-0.299 1.447-2.23 1.794-2.578C37.782 60.281 40.376 57.525 40.724 57.477z" fill="#000000" data-fill-palette-color="accent"></path><path d="M35.7 63.405c0.034-0.234 0.917-0.342 0.95-0.198 0.033 0.144 0.533 1.093 1.746 2.439 1.213 1.349 3.543 3.877 3.477 3.987-0.067 0.109-0.276 0.298-0.431 0.298-0.154 0-2.793-2.584-4.185-4.185C35.865 64.146 35.666 63.639 35.7 63.405z" fill="#000000" data-fill-palette-color="accent"></path><path d="M41.75 69.865c0.351-0.49 1.071 0.619 1.624 1.325 0.552 0.707 1.731 1.955 1.727 3.004-0.126-0.21-0.976-1.745-1.473-2.055-0.387-0.231-0.563-0.076-0.707-0.138C42.778 71.941 41.309 70.484 41.75 69.865z" fill="#000000" data-fill-palette-color="accent"></path><path d="M43.59 72.229c0.13-0.021 1.358 1.604 1.457 2.052-0.149-0.059-1.416-1.558-1.457-2.021" fill="#000000" data-fill-palette-color="accent"></path><path d="M43.283 72.061c0.199 0.058 0.223 0.248 0.256 0.381 0.033 0.132 1.151 1.548 1.259 1.797-0.124-0.008-1.739-1.648-1.681-2.07C43.134 72.076 43.182 72.03 43.283 72.061z" fill="#000000" data-fill-palette-color="accent"></path><path d="M43.109 52.691c0.199 0.18 0.722 0.25 0.855 0.249-0.193 0.296-0.756 0.693-1.253 0.925-0.497 0.231-0.696 0.483-1.126 0.938 0-0.242 0-0.457 0-0.457s-0.332 0.549-0.497 0.457c0.134-0.258 0.298-1.145 0.199-1.439C41.585 53.368 42.281 53.206 43.109 52.691z" fill="#000000" data-fill-palette-color="accent"></path><path d="M41.154 53.518c0.067 0.166-0.082 0.927-0.165 1.209-0.166 0.066-0.547 0.331-0.894 0.762-0.348 0.431-0.663 0.943-0.861 1.044-0.1-0.116-0.249-0.37-0.232-0.79s-0.017-0.883 0.166-1.082C39.349 54.462 40.474 53.584 41.154 53.518z" fill="#000000" data-fill-palette-color="accent"></path><path d="M38.748 55.182c0.177 0.034 0.197 0.604 0.11 1.136-0.088 0.529-0.729 0.884-1.038 1.268-0.364 0.453-1.709 1.065-1.952 1.152-0.243 0.089-0.367 0.34-0.544 0.362s-0.574-0.376-0.574-0.553C34.75 58.371 38.48 55.131 38.748 55.182z" fill="#000000" data-fill-palette-color="accent"></path><path d="M34.75 58.885c0.251 0.021 0.458 0.248 0.458 0.562 0 0.315 0.017 1.475 0 1.988-0.016 0.513 0.232 1.854-0.298 1.854-0.53 0-0.414-0.764-0.447-1.533C34.43 60.987 34.391 58.851 34.75 58.885z" fill="#000000" data-fill-palette-color="accent"></path><path d="M34.943 63.39c0.377-0.051 0.828 1.424 1.06 2.318 0.231 0.895 0.314 1.905 0.149 2.551-0.099-0.663-0.211-1.889-0.561-2.203-0.35-0.315-0.74-0.331-0.744-0.514C34.844 65.36 34.447 63.455 34.943 63.39z" fill="#000000" data-fill-palette-color="accent"></path><path d="M35.081 65.901c0.133 0.044 0.464 0.033 0.464 0.375 0 0.343 0.099 1.789 0.242 1.982C35.258 67.767 35.06 66.222 35.081 65.901z" fill="#000000" data-fill-palette-color="accent"></path><path d="M42.755 52.661c0.077-0.054 0.167 0.055 0.196 0.055-0.172 0.118-1.233 0.648-1.813 0.654-0.58 0.005-1.347 0.039-1.735 0.172-0.388 0.132-1.543 0.53-2.448 0.481 0.88-0.054 1.913-0.559 2.527-0.719 0.614-0.161 1.276-0.145 1.852-0.188C41.933 53.07 42.611 52.764 42.755 52.661z" fill="#000000" data-fill-palette-color="accent"></path><path d="M42.527 52.488c-0.591 0.153-1.48 0.383-2.37 0.337-0.889-0.046-2.685-0.224-3.328-0.166-0.644 0.059-2.055 0.111-2.284 0.032-0.23-0.081-0.168-0.572-0.353-0.663 0.552-0.246 3.643-0.153 4.167-0.077 0.525 0.077 2.479 0.092 2.729 0C41.404 52.124 42.188 52.426 42.527 52.488z" fill="#000000" data-fill-palette-color="accent"></path><path d="M34.192 52.209c0.138 0.064 0.222 0.496 0.105 0.514-0.116 0.017-1.192 0.265-1.805 0.464-0.613 0.198-1.789 0.646-1.988 0.662s-0.265-0.327-0.431-0.544c0.017-0.317 0.779-0.502 1.292-0.658C31.879 52.49 33.805 52.027 34.192 52.209z" fill="#000000" data-fill-palette-color="accent"></path><path d="M30.179 53.738c-0.048 0.104-0.221 0.215-0.696 0.348-0.475 0.133-1.734 0.685-2.164 1.026-0.431 0.343-0.707 0.42-0.906 0.388-0.199-0.034-0.485-0.255-0.32-0.42 0.166-0.166 2.252-1.325 2.716-1.513 0.464-0.188 0.984-0.336 1.126-0.263C30.079 53.377 30.232 53.622 30.179 53.738z" fill="#000000" data-fill-palette-color="accent"></path><path d="M25.957 55.412c0.166 0.06 0.316 0.142 0.374 0.226 0 0.091-1.425 1.723-1.657 2.004C24.749 57.252 25.527 55.562 25.957 55.412z" fill="#000000" data-fill-palette-color="accent"></path><path d="M40.912 51.869c-0.332 0.008-1.789 0.229-3.401-0.168-1.612-0.397-2.208-1.723-2.308-1.965 0.315-0.064 1.036 0.228 1.49 0.551 0.508 0.363 2.251 1.183 2.68 0.885C39.761 51.348 40.912 51.869 40.912 51.869z" fill="#000000" data-fill-palette-color="accent"></path><path d="M34.877 49.658c0.166 0.132 0.221 0.298 0.326 0.414-0.177 0.149-1.734 0.596-3.076 0.613-1.341 0.017-2.037-0.132-2.468-0.231-0.43-0.1-1.788-0.845-1.921-1.094 0.464-0.1 1.459 0.36 2.733 0.58C32.012 50.205 34.551 49.581 34.877 49.658z" fill="#000000" data-fill-palette-color="accent"></path><path d="M14.388 51.061c2.742 0.203 9.121-3.183 10.916-3.18 0.154-0.017 0.543 0.058 0.651 0.045-0.052 0.144 0.059 0.198 0.09 0.314 0 0.309-0.794 0.059-1.396 0.221-1.479 0.398-8.142 3.285-10.262 3.069-3.373-0.342-8.086-1.672-10.358-6.852-2.959-6.747 1.943-13.272 9.431-16.055 5.035-1.988 16.369-2.175 18.752-2.12 6.667 0.155 29.681 2.275 42.113 6.338-8.707-2.245-30.279-6.095-44.716-5.77-6.799 0.153-14.312 0.52-19.296 3.638-1.889 1.182-6.776 4.45-6.703 9.861C3.677 45.451 7.52 50.553 14.388 51.061z" fill="#000000" data-fill-palette-color="accent"></path><path d="M18.595 50.817c0.729-0.249 4.301-1.651 5.052-1.871-4.406 1.938-6.244 3.494-9.292 3.693C8.889 52.806 1.469 50.847 1.469 42.337c0-6.957 3.721-9.033 5.797-10.27 0.033 0.044-0.895 0.905-1.469 1.524-1.281 1.104-3.489 3.136-3.754 7.995s2.418 9.286 9.143 10.335C15.293 52.463 16.254 51.756 18.595 50.817z" fill="#000000" data-fill-palette-color="accent"></path><path d="M10.048 30.942c-0.662 0.397-1.159 0.794-1.722 1.192 0.463-0.199 3.147-1.425 7.586-1.756 4.438-0.331 6.564-0.897 20.571 0.166 12.224 0.928 21.765 3.512 28.655 8.083-2.386-2.12-12.935-7.447-29.285-8.613C19.755 28.866 13.726 29.882 10.048 30.942z" fill="#000000" data-fill-palette-color="accent"></path></g></svg></g></svg></g><g><path d="M40.078 195.777C40.284 196.755 40.39 197.41 40.394 197.741 40.405 198.069 40.317 198.33 40.132 198.525V198.525C37.926 198.835 34.82 199.33 30.815 200.009 26.805 200.691 24.11 201.144 22.733 201.368V201.368C19.999 201.867 17.561 202.288 15.419 202.63V202.63C13.92 202.846 13.017 202.585 12.711 201.847V201.847C11.771 199.584 11.831 198.233 12.891 197.793V197.793C12.474 197.966 15.523 197.45 22.037 196.247V196.247L25.49 195.59 11.064 192.964C10.407 192.771 9.921 192.293 9.604 191.53V191.53C9.337 190.887 9.247 190.226 9.335 189.547 9.426 188.858 9.647 188.482 9.997 188.418V188.418L21.088 181.432 7.604 183.481C6.815 183.609 6.223 183.544 5.828 183.287 5.433 183.029 5.031 182.409 4.623 181.426V181.426C4.306 180.663 4.203 180.048 4.312 179.581 4.424 179.121 4.789 178.763 5.407 178.506V178.506C5.678 178.394 5.951 178.321 6.225 178.288V178.288L28.32 175.06C29.517 174.881 30.356 174.873 30.837 175.035 31.322 175.189 31.734 175.672 32.071 176.485V176.485C32.349 177.154 32.522 177.776 32.592 178.353 32.655 178.933 32.543 179.297 32.258 179.445V179.445L32.182 179.477 15.051 190.045C17.187 190.4 20.716 190.979 25.638 191.782 30.567 192.581 34.412 193.217 37.172 193.69V193.69C37.892 193.68 38.407 193.791 38.719 194.024 39.036 194.254 39.313 194.557 39.55 194.932 39.795 195.31 39.972 195.592 40.078 195.777ZM12.891 197.793ZM28.265 222.484C27.724 222.916 27.259 223.343 26.868 223.764V223.764C26.702 223.81 26.439 223.708 26.079 223.457 25.71 223.204 25.443 222.956 25.279 222.713V222.713C24.739 221.916 24.47 221.27 24.472 220.774 24.471 220.272 24.701 219.865 25.165 219.551V219.551C25.606 219.252 26.08 218.997 26.588 218.785V218.785C25.592 218.751 24.561 218.41 23.496 217.762 22.431 217.115 21.704 216.503 21.313 215.927V215.927C20.314 214.452 19.911 212.932 20.104 211.366 20.303 209.797 21.352 208.37 23.251 207.084V207.084C25.037 205.874 27.008 205.158 29.165 204.934 31.32 204.719 33.384 205.035 35.36 205.882 37.338 206.735 38.948 208.077 40.188 209.908V209.908C40.429 210.264 40.65 210.791 40.85 211.488 41.054 212.191 41.126 212.991 41.066 213.889 41.008 214.777 40.76 215.658 40.322 216.532V216.532C40.444 216.713 40.5 216.984 40.489 217.346 40.479 217.708 40.386 217.948 40.211 218.067V218.067C40.007 218.204 39.784 218.306 39.54 218.373V218.373ZM36.528 214.711C36.923 214.246 37.156 213.709 37.23 213.099 37.297 212.493 37.226 212.034 37.015 211.723V211.723C36.326 210.706 35.32 209.994 33.998 209.587 32.675 209.18 31.298 209.058 29.866 209.219 28.429 209.385 27.235 209.789 26.286 210.433V210.433C25.359 211.06 24.673 211.685 24.229 212.308 23.783 212.939 23.776 213.575 24.209 214.213V214.213C24.584 214.767 25.181 215.29 26.001 215.782 26.815 216.278 27.694 216.614 28.638 216.791 29.586 216.973 30.427 216.943 31.162 216.701V216.701ZM45.468 218.01C45.471 217.904 45.512 217.814 45.592 217.739V217.739C45.785 217.556 46.145 217.619 46.673 217.928 47.201 218.227 47.823 218.756 48.541 219.515V219.515C49.203 220.214 49.51 220.896 49.462 221.561 49.41 222.231 49.162 222.832 48.717 223.366V223.366L46.336 224.632C47.28 224.509 48.358 224.57 49.568 224.816 50.778 225.071 51.895 225.428 52.921 225.886 53.946 226.354 54.686 226.828 55.141 227.309V227.309C56.112 228.335 56.63 229.26 56.694 230.083 56.758 230.905 56.384 231.701 55.571 232.471V232.471C51.502 234.149 47.569 236.438 43.771 239.336V239.336L42.738 241.09C42.071 241.279 41.409 241.289 40.752 241.122 40.1 240.949 39.399 240.466 38.648 239.673V239.673C38.207 239.207 38.04 238.722 38.145 238.218 38.256 237.709 38.542 237.237 39.003 236.8V236.8C40.302 235.571 41.911 234.406 43.829 233.305 45.742 232.209 47.751 231.144 49.856 230.111V230.111C50.664 229.713 51.075 229.507 51.09 229.493V229.493C51.363 229.235 51.351 228.95 51.056 228.638V228.638C50.657 228.216 49.749 227.858 48.333 227.563 46.917 227.268 45.066 227.337 42.78 227.772 40.498 228.211 37.937 229.238 35.097 230.855V230.855C34.94 230.928 34.683 231.082 34.324 231.319 33.955 231.555 33.589 231.605 33.226 231.469 32.858 231.339 32.409 230.993 31.878 230.433V230.433C31.273 229.793 30.899 229.259 30.757 228.83 30.604 228.401 30.751 227.975 31.197 227.553V227.553C31.526 227.355 31.938 227.129 32.433 226.877V226.877C38.01 223.734 42.301 221.308 45.308 219.599V219.599ZM60.048 252.948C59.673 253.529 59.367 254.081 59.131 254.605V254.605C58.988 254.702 58.706 254.689 58.285 254.565 57.855 254.442 57.523 254.292 57.29 254.114V254.114C56.525 253.53 56.065 253.002 55.909 252.531 55.748 252.056 55.837 251.596 56.177 251.151V251.151C56.5 250.728 56.869 250.335 57.283 249.973V249.973C56.327 250.257 55.242 250.261 54.027 249.986 52.811 249.711 51.927 249.362 51.373 248.939V248.939C49.958 247.858 49.092 246.545 48.778 244.999 48.468 243.448 49.009 241.762 50.401 239.939V239.939C51.71 238.224 53.351 236.919 55.325 236.021 57.3 235.133 59.358 234.777 61.5 234.952 63.647 235.132 65.6 235.893 67.358 237.235V237.235C67.699 237.496 68.076 237.925 68.487 238.523 68.904 239.124 69.226 239.86 69.455 240.73 69.682 241.591 69.727 242.505 69.589 243.473V243.473C69.763 243.606 69.902 243.845 70.007 244.192 70.112 244.538 70.1 244.795 69.971 244.963V244.963C69.822 245.159 69.643 245.326 69.432 245.467V245.467ZM65.414 242.952C65.64 242.386 65.691 241.802 65.566 241.2 65.438 240.604 65.224 240.192 64.926 239.964V239.964C63.949 239.218 62.769 238.863 61.386 238.897 60.003 238.932 58.658 239.253 57.352 239.862 56.041 240.476 55.038 241.238 54.342 242.15V242.15C53.663 243.039 53.211 243.85 52.988 244.581 52.766 245.322 52.961 245.926 53.574 246.394V246.394C54.106 246.8 54.839 247.106 55.772 247.312 56.701 247.524 57.641 247.563 58.593 247.431 59.55 247.303 60.338 247.007 60.957 246.544V246.544ZM63.802 268.284C62.714 267.712 61.817 266.939 61.11 265.966 60.404 264.993 59.919 263.963 59.658 262.877 59.405 261.788 59.335 260.791 59.448 259.887V259.887C59.695 259.477 60.12 259.168 60.722 258.96 61.334 258.75 62.123 258.899 63.09 259.407V259.407C63.398 259.569 63.602 259.827 63.702 260.18 63.798 260.539 63.853 261.05 63.867 261.713V261.713C63.873 262.626 63.98 263.384 64.187 263.986 64.392 264.595 64.859 265.092 65.59 265.476V265.476C66.418 265.911 67.387 266.004 68.497 265.755 69.605 265.512 70.728 264.981 71.869 264.162 73.009 263.342 74.038 262.317 74.954 261.087V261.087C74.063 261.521 73.184 261.749 72.316 261.771 71.439 261.796 70.708 261.654 70.122 261.346V261.346C68.231 260.352 66.956 259.146 66.298 257.728 65.643 256.319 65.881 254.539 67.012 252.388V252.388C68.028 250.455 69.513 248.93 71.465 247.812 73.42 246.704 75.556 246.127 77.871 246.079 80.186 246.032 82.371 246.548 84.425 247.628V247.628C85.772 248.337 86.628 249.13 86.992 250.007 87.358 250.894 87.393 251.788 87.097 252.689V252.689C87.398 253.085 87.509 253.387 87.431 253.593V253.593C87.397 253.659 87.221 253.883 86.905 254.265V254.265C85.441 255.963 82.485 259.29 78.036 264.246V264.246L76.827 265.6C75.037 267.582 72.956 268.805 70.583 269.269 68.213 269.743 65.953 269.414 63.802 268.284ZM82.863 251.457C82.851 251.026 82.781 250.72 82.653 250.537 82.523 250.345 82.282 250.157 81.932 249.973V249.973C80.82 249.388 79.556 249.182 78.138 249.355 76.721 249.527 75.394 250.021 74.156 250.835 72.915 251.64 71.977 252.647 71.342 253.855V253.855C70.884 254.725 70.647 255.565 70.631 256.373 70.618 257.176 70.939 257.812 71.595 258.28V258.28C72.623 258.612 73.738 258.655 74.94 258.408 76.139 258.167 77.175 257.582 78.049 256.653V256.653ZM89.975 271.413C87.508 270.547 85.884 269.426 85.1 268.051 84.313 266.668 84.207 265.158 84.781 263.522V263.522C85.62 261.133 86.993 259.13 88.899 257.514 90.814 255.893 92.983 254.839 95.404 254.351 97.821 253.854 100.189 254.013 102.507 254.827V254.827C103.911 255.321 104.954 256.132 105.635 257.261 106.31 258.388 106.378 259.718 105.84 261.25V261.25C105.53 262.133 104.992 262.758 104.226 263.125 103.467 263.495 102.479 263.713 101.263 263.777 100.05 263.851 98.121 263.875 95.475 263.849V263.849C93.09 263.8 91.148 263.78 89.647 263.788V263.788C89.411 264.132 89.221 264.507 89.079 264.913V264.913C88.832 265.615 88.938 266.26 89.397 266.848 89.859 267.429 90.63 267.91 91.712 268.29V268.29C92.388 268.528 93.216 268.663 94.196 268.696 95.175 268.729 95.852 268.572 96.227 268.227V268.227C97.631 266.969 98.684 266.463 99.386 266.71V266.71C100.416 267.072 101.047 267.511 101.279 268.026 101.508 268.548 101.551 269.051 101.41 269.537V269.537C100.824 270.236 99.947 270.839 98.777 271.347 97.608 271.855 96.251 272.134 94.706 272.185 93.162 272.236 91.585 271.979 89.975 271.413ZM91.918 260.69C94.693 260.761 97.007 260.734 98.859 260.611 100.713 260.481 101.759 260.077 101.997 259.401V259.401C102.103 259.099 102.026 258.793 101.765 258.484 101.509 258.185 101.191 257.968 100.811 257.834V257.834C100.057 257.57 99.093 257.556 97.917 257.794 96.747 258.035 95.601 258.424 94.478 258.963 93.356 259.502 92.502 260.078 91.918 260.69ZM139.694 252.342C140.61 252.927 141.036 253.603 140.971 254.372V254.372C140.93 254.854 140.634 255.278 140.083 255.643 139.531 256.014 138.929 256.251 138.276 256.353V256.353L136.511 256.327C135.711 256.314 134.626 256.294 133.259 256.268 131.897 256.249 130.292 256.24 128.442 256.241V256.241L126.053 263.232C127.748 263.108 129.154 263.011 130.27 262.941 131.385 262.877 132.624 262.849 133.986 262.854V262.854C134.988 263.398 135.457 264.054 135.392 264.822V264.822C135.352 265.299 135.071 265.744 134.55 266.159 134.035 266.568 133.464 266.841 132.836 266.98V266.98L130.541 267.022C128.104 267.083 126.143 267.185 124.659 267.327V267.327C124.215 268.762 123.607 270.57 122.833 272.752V272.752L122.413 273.959C126.005 273.599 129.459 273.425 132.773 273.438V273.438C133.769 273.974 134.234 274.626 134.169 275.395V275.395C134.129 275.878 133.851 276.324 133.337 276.732 132.823 277.148 132.251 277.422 131.624 277.553V277.553C126.528 277.712 122.926 277.9 120.818 278.12V278.12C120.566 278.263 120.039 278.3 119.236 278.232V278.232C118.495 278.17 117.868 277.767 117.355 277.025 116.842 276.29 116.617 275.548 116.68 274.8V274.8C116.705 274.508 116.769 274.232 116.873 273.974V273.974L122.933 256.381 122.81 256.371C122.815 256.077 122.661 255.704 122.35 255.253V255.253C122.327 255.197 122.233 255.021 122.066 254.726 121.906 254.431 121.837 254.152 121.859 253.886V253.886C121.979 253.115 122.538 252.546 123.535 252.178V252.178C125.55 252.082 128.36 252.059 131.966 252.11 135.579 252.162 138.155 252.239 139.694 252.342ZM143.903 279.72C142.991 279.601 142.341 279.459 141.953 279.295 141.565 279.138 141.309 278.904 141.184 278.591 141.052 278.279 140.945 277.739 140.863 276.971V276.971C140.651 275.166 140.403 273.378 140.118 271.605V271.605C140.061 271.185 139.889 269.928 139.602 267.834 139.322 265.746 139.114 263.756 138.978 261.863V261.863C138.944 261.387 139.161 260.971 139.628 260.616 140.095 260.26 140.703 260.056 141.452 260.002V260.002C142.889 259.899 143.654 260.501 143.748 261.809V261.809L144.572 272.733 144.773 275.531C146.309 272.047 148.076 268.444 150.074 264.722 152.065 260.993 153.391 259.105 154.051 259.058V259.058C154.909 258.996 155.639 259.111 156.242 259.403 156.851 259.695 157.185 260.051 157.242 260.471V260.471C157.037 260.944 156.579 261.809 155.868 263.064V263.064C155.58 263.536 155.071 264.452 154.341 265.812V265.812L153.099 268.108C151.116 271.754 149.732 274.255 148.946 275.612 148.16 276.961 147.481 277.937 146.908 278.54V278.54C146.634 278.826 146.225 279.085 145.681 279.315 145.136 279.539 144.543 279.674 143.903 279.72ZM166.512 276.768C163.96 277.336 161.988 277.243 160.597 276.49 159.197 275.732 158.309 274.506 157.933 272.814V272.814C157.382 270.342 157.489 267.916 158.253 265.537 159.022 263.149 160.306 261.108 162.104 259.414 163.893 257.715 165.987 256.599 168.386 256.065V256.065C169.838 255.741 171.152 255.879 172.327 256.478 173.496 257.078 174.256 258.17 174.609 259.756V259.756C174.813 260.669 174.686 261.484 174.23 262.201 173.781 262.916 173.057 263.623 172.059 264.32 171.069 265.023 169.444 266.063 167.184 267.44V267.44C165.133 268.659 163.473 269.668 162.204 270.468V270.468C162.185 270.885 162.222 271.303 162.315 271.723V271.723C162.477 272.449 162.908 272.941 163.609 273.198 164.308 273.448 165.217 273.448 166.336 273.199V273.199C167.036 273.043 167.81 272.72 168.659 272.231 169.508 271.741 170 271.25 170.136 270.759V270.759C170.663 268.949 171.29 267.963 172.016 267.802V267.802C173.082 267.565 173.849 267.604 174.318 267.919 174.788 268.241 175.092 268.645 175.228 269.132V269.132C175.1 270.035 174.674 271.011 173.95 272.06 173.225 273.109 172.221 274.064 170.937 274.923 169.652 275.782 168.177 276.397 166.512 276.768ZM162.495 266.638C164.888 265.231 166.838 263.986 168.345 262.902 169.85 261.812 170.525 260.917 170.37 260.217V260.217C170.3 259.904 170.073 259.686 169.689 259.561 169.312 259.442 168.928 259.427 168.535 259.514V259.514C167.755 259.688 166.929 260.186 166.056 261.01 165.191 261.832 164.423 262.768 163.755 263.819 163.087 264.87 162.667 265.809 162.495 266.638ZM184.491 269.263C184.523 269.419 184.583 269.73 184.67 270.194 184.754 270.667 184.661 271.056 184.392 271.36 184.129 271.661 183.635 271.955 182.911 272.239V272.239C182.092 272.562 181.464 272.71 181.028 272.683 180.586 272.659 180.252 272.361 180.028 271.789V271.789L179.023 263.977C178.402 259.49 178.034 256.624 177.918 255.378V255.378L176.546 254.631C176.44 254.585 176.367 254.511 176.327 254.409V254.409C176.229 254.161 176.422 253.851 176.906 253.477 177.39 253.103 178.118 252.725 179.09 252.343V252.343C179.954 252.003 180.63 252.016 181.118 252.381 181.607 252.747 182.04 253.299 182.419 254.037V254.037L182.544 255.11C182.955 253.826 183.565 252.662 184.372 251.619 185.176 250.569 185.988 249.882 186.808 249.56V249.56C187.875 249.14 188.778 249.002 189.516 249.144 190.258 249.278 190.746 249.643 190.981 250.24V250.24C191.186 250.761 191.221 251.371 191.085 252.07 190.942 252.771 190.673 253.42 190.277 254.016 189.883 254.618 189.436 255.047 188.935 255.303V255.303C188.439 255.498 188.078 255.567 187.85 255.51 187.631 255.456 187.473 255.306 187.375 255.058V255.058L187.12 253.739C185.347 255.067 184.063 257.091 183.27 259.809V259.809ZM206.18 258.822C205.807 260.011 205.348 260.992 204.805 261.767 204.265 262.548 203.531 263.2 202.603 263.721V263.721C201.068 264.584 199.619 264.771 198.257 264.284 196.901 263.793 195.778 262.756 194.888 261.174V261.174C194.628 260.709 194.408 260.159 194.231 259.523V259.523L191.454 249.104C191.303 248.515 191.341 247.997 191.567 247.549 191.787 247.105 192.305 246.653 193.12 246.195V246.195C194.328 245.516 195.122 245.516 195.504 246.195V246.195C195.657 246.468 195.825 246.954 196.005 247.651V247.651L198.917 258.311C199.009 258.627 199.133 258.925 199.29 259.205V259.205C199.565 259.693 199.915 260.017 200.341 260.177 200.768 260.336 201.258 260.261 201.811 259.95V259.95C202.531 259.545 203.192 258.896 203.794 258.002 204.399 257.114 204.819 256.205 205.055 255.273V255.273L204.18 252.148C203.574 250.038 202.956 247.739 202.325 245.251V245.251C202.056 244.173 201.958 243.226 202.032 242.409 202.102 241.587 202.581 240.926 203.468 240.428V240.428C204.699 239.736 205.524 239.762 205.942 240.506V240.506C206.009 240.625 206.061 240.787 206.099 240.993 206.136 241.199 206.176 241.369 206.22 241.501V241.501L207.751 246.924C209.392 252.672 210.426 256.359 210.852 257.982V257.982C211.553 260.65 211.892 262.863 211.87 264.621 211.844 266.374 211.421 267.864 210.6 269.093 209.78 270.321 208.474 271.439 206.682 272.445V272.445C205.54 273.087 204.511 273.45 203.595 273.534 202.679 273.618 201.921 273.523 201.321 273.249 200.727 272.972 200.32 272.638 200.099 272.245V272.245C199.457 271.102 199.764 270.178 201.019 269.473V269.473C201.365 269.279 201.687 269.192 201.988 269.211 202.291 269.22 202.63 269.288 203.006 269.414V269.414C203.535 269.547 203.991 269.612 204.372 269.609 204.754 269.606 205.201 269.46 205.713 269.173V269.173C206.106 268.952 206.456 268.544 206.763 267.949 207.067 267.347 207.259 266.566 207.338 265.606 207.411 264.649 207.302 263.563 207.011 262.348V262.348ZM214.335 238.114L218.455 247.647C218.828 248.135 219.249 248.427 219.719 248.524 220.193 248.616 220.664 248.484 221.13 248.128V248.128C221.764 247.642 222.147 247.053 222.278 246.36 222.408 245.676 222.447 244.817 222.395 243.782V243.782C222.358 243.037 222.365 242.478 222.414 242.105 222.464 241.732 222.627 241.44 222.904 241.228V241.228C223.457 240.805 223.902 240.572 224.238 240.529 224.579 240.492 224.912 240.685 225.235 241.108V241.108C225.38 241.298 225.533 241.542 225.692 241.841 225.852 242.14 225.947 242.376 225.978 242.551V242.551C226.299 244.015 226.182 245.582 225.629 247.252 225.071 248.916 224.06 250.307 222.596 251.427V251.427C221.138 252.543 219.768 253.032 218.486 252.895 217.2 252.753 216.053 252.023 215.045 250.706V250.706C214.9 250.516 214.616 249.947 214.192 249 213.764 248.047 213.27 246.895 212.709 245.545V245.545L210.836 241.242 209.01 242.883C208.756 243.078 208.493 243.128 208.223 243.033 207.948 242.943 207.705 242.76 207.493 242.483V242.483C207.087 241.952 206.875 241.276 206.858 240.456V240.456C206.851 240.358 207.013 240.131 207.343 239.776 207.677 239.426 208.095 239.007 208.599 238.519V238.519L209.378 237.768 206.914 232.305C206.703 231.59 206.695 230.912 206.893 230.272 207.094 229.636 207.388 229.171 207.773 228.877V228.877C208.195 228.554 208.653 228.405 209.147 228.432 209.634 228.463 210.017 228.638 210.296 228.958V228.958L212.803 234.594C213.548 233.861 214.247 233.185 214.899 232.566 215.551 231.946 216.078 231.483 216.479 231.177V231.177C217.281 230.563 218.039 230.722 218.753 231.655V231.655C219.03 232.018 219.125 232.457 219.037 232.971 218.948 233.495 218.749 233.926 218.441 234.265V234.265ZM226.046 229.316C225.604 228.041 225.449 226.719 225.58 225.35 225.711 223.981 225.999 222.735 226.444 221.61 226.899 220.486 227.374 219.665 227.871 219.148V219.148C228.83 218.148 229.71 217.606 230.509 217.522 231.309 217.438 232.113 217.783 232.92 218.558V218.558C234.793 222.541 237.269 226.359 240.347 230.013V230.013L242.148 230.961C242.369 231.617 242.426 232.263 242.319 232.898 242.206 233.528 241.769 234.239 241.009 235.032V235.032C240.569 235.49 240.095 235.678 239.586 235.597 239.073 235.511 238.587 235.249 238.129 234.809V234.809C236.839 233.571 235.597 232.02 234.405 230.157 233.218 228.299 232.057 226.344 230.924 224.291V224.291C230.488 223.504 230.262 223.103 230.248 223.089V223.089C229.977 222.829 229.692 222.854 229.395 223.164V223.164C229.007 223.568 228.743 224.44 228.601 225.78 228.46 227.12 228.699 228.882 229.319 231.066 229.938 233.25 231.124 235.721 232.875 238.48V238.48C232.955 238.595 233.114 238.837 233.354 239.209 233.584 239.581 233.635 239.966 233.508 240.364 233.391 240.763 233.063 241.243 232.524 241.804V241.804C231.881 242.474 231.309 242.923 230.807 243.15 230.314 243.378 229.856 243.288 229.432 242.882V242.882C221.943 230.852 217.243 223.348 215.332 220.37V220.37C215.062 220.148 214.715 219.844 214.292 219.457 213.869 219.07 213.542 218.765 213.31 218.543V218.543C213.096 218.224 213.088 217.819 213.285 217.327 213.487 216.831 213.763 216.4 214.113 216.036V216.036C214.704 215.42 215.365 215.056 216.096 214.945 216.833 214.838 217.469 215.003 218.004 215.441V215.441ZM230.175 208.807C229.512 208.315 229.079 207.667 228.877 206.863 228.67 206.064 228.846 205.289 229.403 204.538V204.538C229.988 203.748 230.747 203.24 231.68 203.014 232.608 202.793 233.382 202.913 234.002 203.372V203.372C234.627 203.836 234.942 204.533 234.949 205.464 234.951 206.4 234.66 207.263 234.074 208.053V208.053C233.501 208.826 232.87 209.263 232.183 209.366 231.486 209.469 230.817 209.283 230.175 208.807ZM238.373 209.647C242.158 214.214 244.996 217.665 246.884 220V220C247.163 220.334 247.505 220.652 247.911 220.953V220.953L248.84 221.591C249.202 221.859 249.373 222.161 249.355 222.495 249.337 222.839 249.071 223.381 248.557 224.121V224.121C248.032 224.829 247.557 225.309 247.131 225.562 246.715 225.814 246.26 225.758 245.766 225.392V225.392C245.531 225.217 244.479 224.016 242.612 221.79 240.748 219.559 238.346 216.622 235.405 212.979V212.979L233.886 212.999C233.777 213.02 233.678 212.998 233.591 212.933V212.933C233.377 212.775 233.376 212.409 233.589 211.836 233.796 211.258 234.21 210.55 234.833 209.712V209.712C235.373 208.982 235.927 208.671 236.494 208.777 237.067 208.887 237.693 209.177 238.373 209.647ZM239.016 205.475C238.914 205.503 238.815 205.49 238.72 205.437V205.437C238.488 205.305 238.443 204.942 238.584 204.348 238.715 203.755 239.038 203.005 239.552 202.096V202.096C240.026 201.258 240.588 200.765 241.238 200.615 241.894 200.468 242.541 200.529 243.182 200.797V200.797L245.092 202.702C244.696 201.835 244.439 200.787 244.318 199.558 244.208 198.327 244.221 197.154 244.358 196.039 244.504 194.922 244.74 194.075 245.066 193.499V193.499C245.762 192.269 246.494 191.503 247.262 191.2 248.029 190.898 248.9 191.022 249.874 191.573V191.573C252.673 194.97 256.016 198.058 259.901 200.838V200.838L261.88 201.311C262.257 201.893 262.461 202.523 262.494 203.2 262.52 203.874 262.264 204.686 261.726 205.636V205.636C261.41 206.195 260.996 206.497 260.483 206.544 259.964 206.588 259.428 206.453 258.876 206.14V206.14C257.319 205.259 255.734 204.064 254.118 202.553 252.508 201.046 250.901 199.438 249.296 197.729V197.729C248.678 197.073 248.361 196.741 248.343 196.73V196.73C248.016 196.546 247.747 196.64 247.535 197.014V197.014C247.249 197.519 247.173 198.492 247.307 199.932 247.441 201.373 248.05 203.122 249.136 205.18 250.226 207.232 251.96 209.379 254.339 211.62V211.62C254.454 211.748 254.678 211.949 255.009 212.223 255.343 212.506 255.498 212.841 255.475 213.228 255.458 213.618 255.26 214.149 254.88 214.82V214.82C254.446 215.586 254.045 216.101 253.677 216.363 253.311 216.635 252.861 216.619 252.327 216.316V216.316C252.04 216.06 251.704 215.733 251.318 215.334V215.334C246.676 210.925 243.097 207.534 240.582 205.161V205.161ZM274.835 195.158C274.422 196.316 273.785 197.313 272.921 198.15 272.058 198.988 271.107 199.613 270.069 200.026 269.027 200.43 268.05 200.64 267.139 200.656V200.656C266.698 200.47 266.332 200.093 266.041 199.526 265.746 198.95 265.782 198.148 266.148 197.119V197.119C266.265 196.791 266.491 196.553 266.827 196.404 267.168 196.258 267.667 196.131 268.321 196.023V196.023C269.224 195.888 269.959 195.675 270.526 195.385 271.1 195.096 271.525 194.563 271.802 193.785V193.785C272.116 192.904 272.071 191.932 271.667 190.868 271.27 189.806 270.585 188.769 269.612 187.756 268.64 186.743 267.48 185.87 266.132 185.136V185.136C266.688 185.957 267.038 186.796 267.182 187.651 267.331 188.516 267.294 189.26 267.072 189.884V189.884C266.356 191.896 265.342 193.329 264.032 194.181 262.73 195.029 260.934 195.045 258.645 194.23V194.23C256.587 193.497 254.867 192.244 253.485 190.469 252.111 188.69 251.237 186.658 250.863 184.373 250.488 182.088 250.69 179.852 251.468 177.665V177.665C251.979 176.232 252.643 175.272 253.46 174.788 254.286 174.3 255.166 174.138 256.1 174.304V174.304C256.45 173.951 256.733 173.798 256.948 173.845V173.845C257.018 173.871 257.265 174.013 257.687 174.272V174.272C259.575 175.48 263.288 177.936 268.823 181.639V181.639L270.335 182.644C272.55 184.136 274.055 186.023 274.851 188.306 275.655 190.585 275.65 192.869 274.835 195.158ZM255.48 178.67C255.055 178.743 254.762 178.856 254.599 179.008 254.427 179.165 254.275 179.429 254.142 179.802V179.802C253.721 180.985 253.696 182.266 254.067 183.645 254.439 185.023 255.115 186.267 256.096 187.378 257.069 188.492 258.198 189.278 259.485 189.736V189.736C260.41 190.066 261.275 190.182 262.078 190.083 262.874 189.983 263.458 189.575 263.829 188.859V188.859C264.012 187.794 263.897 186.684 263.482 185.53 263.074 184.377 262.348 183.434 261.305 182.7V182.7Z" fill="#000000" data-fill-palette-color="secondary"></path><path d="M55.416 41.08C53.14 43.974 51.372 46.331 50.113 48.152V48.152C50.331 49.375 50.491 50.185 50.593 50.581V50.581C50.849 51.733 51.037 52.711 51.159 53.514 51.28 54.326 51.324 55.104 51.289 55.846V55.846C51.251 56.666 51.175 57.293 51.063 57.727 50.956 58.167 50.718 58.554 50.349 58.89V58.89C49.739 59.446 49.075 59.796 48.358 59.942 47.646 60.082 47.159 60.009 46.897 59.721V59.721C46.9 59.644 46.711 58.985 46.33 57.745 45.948 56.505 45.712 54.725 45.623 52.406V52.406C45.476 52.245 45.239 52.086 44.913 51.931 44.592 51.781 44.412 51.685 44.376 51.645V51.645C43.833 51.049 44.112 49.485 45.212 46.951V46.951C44.836 44.45 44.537 41.916 44.314 39.35 44.091 36.783 43.878 33.7 43.674 30.101V30.101C43.619 29.219 43.76 28.324 44.097 27.417 44.429 26.515 44.913 25.774 45.549 25.195V25.195C46.205 24.597 46.753 24.21 47.191 24.032 47.629 23.864 47.988 23.838 48.267 23.952 48.547 24.076 48.854 24.323 49.189 24.691V24.691C49.665 25.375 50.033 25.881 50.293 26.207V26.207C52.241 28.965 53.941 31.299 55.393 33.208 56.855 35.117 58.388 36.953 59.991 38.714V38.714C61.462 40.329 62.884 41.749 64.257 42.973V42.973C64.642 43.517 64.832 44.157 64.826 44.891 64.821 45.625 64.573 46.215 64.084 46.661V46.661C63.145 47.516 62.313 47.844 61.588 47.646 60.858 47.442 59.983 46.781 58.963 45.66V45.66C58.214 44.837 57.032 43.311 55.416 41.08ZM49.331 42.411C49.626 41.995 50.106 41.392 50.771 40.602V40.602L52.886 37.997C50.476 34.985 48.827 32.743 47.939 31.272V31.272C48.001 32.942 48.465 36.655 49.331 42.411ZM66.809 20.426C67.78 19.829 68.952 19.448 70.326 19.284 71.706 19.117 73.049 19.412 74.357 20.17V20.17C74.543 20.056 74.824 20.011 75.2 20.036 75.58 20.067 75.827 20.175 75.942 20.361V20.361C76.07 20.571 76.163 20.806 76.22 21.068V21.068L82.667 41.276C82.715 41.407 82.804 41.577 82.932 41.786V41.786C83.15 42.141 83.441 42.483 83.804 42.812V42.812C83.844 42.981 83.725 43.25 83.448 43.621 83.168 43.985 82.888 44.254 82.609 44.425V44.425C81.806 44.919 81.155 45.143 80.655 45.099 80.151 45.048 79.702 44.703 79.309 44.064V44.064C78.976 43.523 78.66 42.808 78.361 41.918 78.06 41.037 77.707 39.924 77.304 38.577V38.577C76.798 36.973 76.473 35.971 76.331 35.57V35.57C76.06 36.353 75.642 37.075 75.078 37.735 74.505 38.392 73.913 38.908 73.302 39.284V39.284C71.367 40.475 69.526 40.746 67.78 40.097 66.034 39.448 64.575 38.17 63.402 36.263V36.263C62.329 34.519 61.697 32.66 61.508 30.684 61.309 28.707 61.65 26.806 62.531 24.982 63.407 23.161 64.833 21.642 66.809 20.426ZM68.395 23.394C67.313 24.059 66.549 25.018 66.102 26.271 65.651 27.518 65.508 28.849 65.672 30.262 65.839 31.666 66.256 32.912 66.925 33.999V33.999C67.752 35.342 68.672 36.122 69.687 36.339 70.7 36.565 71.701 36.374 72.689 35.766V35.766C73.02 35.563 73.454 34.907 73.991 33.799 74.524 32.686 74.821 31.754 74.88 31.004V31.004L72.709 24.154C72.689 24.07 72.635 23.955 72.545 23.809V23.809C72.087 23.378 71.394 23.131 70.467 23.069 69.533 23.01 68.842 23.118 68.395 23.394ZM98.62 26.74C98.69 27.22 98.582 27.614 98.296 27.923 98.003 28.235 97.562 28.51 96.975 28.75V28.75C95.205 29.473 94.159 29.44 93.837 28.65V28.65L93.468 27.097C92.973 27.926 92.349 28.808 91.596 29.743 90.842 30.677 90.143 31.276 89.498 31.54V31.54C85.707 33.089 83.304 32.622 82.29 30.138V30.138C80.562 25.911 79.959 20.808 80.481 14.829V14.829C80.541 14.111 80.694 13.555 80.938 13.16 81.18 12.759 81.724 12.385 82.57 12.04V12.04C83.461 11.676 84.182 11.525 84.731 11.588 85.278 11.645 85.619 11.841 85.756 12.176V12.176C85.787 12.252 85.742 12.539 85.622 13.038V13.038C85.474 13.489 85.367 13.92 85.299 14.331V14.331C84.536 19.34 84.934 23.753 86.493 27.569V27.569C86.63 27.904 86.877 28.146 87.233 28.296 87.598 28.449 87.881 28.484 88.083 28.402V28.402C88.646 28.172 89.49 27.513 90.617 26.426 91.74 25.333 92.544 24.359 93.029 23.505V23.505L92.536 20.079C91.934 15.989 91.577 13.473 91.465 12.531V12.531C91.331 11.391 91.355 10.404 91.538 9.57 91.712 8.732 92.288 8.113 93.268 7.713V7.713C94.62 7.161 95.464 7.295 95.799 8.116V8.116C95.851 8.243 95.885 8.417 95.902 8.639 95.916 8.854 95.937 9.03 95.963 9.167V9.167L96.972 16.021C97.761 21.472 98.311 25.045 98.62 26.74ZM117.304 19.905C117.516 20.599 117.752 21.214 118.013 21.75V21.75C117.995 21.922 117.795 22.135 117.411 22.389 117.029 22.65 116.692 22.813 116.398 22.879V22.879C115.426 23.098 114.698 23.111 114.214 22.919 113.732 22.733 113.426 22.354 113.298 21.781V21.781C113.176 21.242 113.108 20.69 113.094 20.127V20.127C112.684 21.073 111.965 21.937 110.938 22.721 109.91 23.504 109.044 23.975 108.338 24.134V24.134C106.526 24.541 104.903 24.353 103.468 23.57 102.033 22.787 101.054 21.233 100.532 18.909V18.909C100.041 16.725 100.098 14.55 100.703 12.385 101.308 10.221 102.398 8.346 103.973 6.761 105.54 5.17 107.445 4.123 109.689 3.619V3.619C110.122 3.522 110.715 3.511 111.466 3.587 112.216 3.656 113.013 3.887 113.857 4.278 114.695 4.677 115.454 5.252 116.133 6.002V6.002C116.353 5.952 116.634 6.005 116.976 6.159 117.324 6.304 117.522 6.487 117.571 6.707V6.707C117.625 6.947 117.64 7.199 117.615 7.463V7.463ZM112.929 8.978C112.636 8.421 112.208 7.992 111.643 7.692 111.079 7.392 110.607 7.285 110.228 7.37V7.37C108.989 7.649 107.922 8.35 107.028 9.474 106.126 10.6 105.484 11.885 105.102 13.328 104.721 14.778 104.661 16.082 104.921 17.241V17.241C105.177 18.38 105.52 19.282 105.949 19.948 106.385 20.613 106.993 20.858 107.772 20.683V20.683C108.452 20.53 109.183 20.156 109.965 19.56 110.753 18.956 111.415 18.23 111.952 17.382 112.484 16.542 112.772 15.722 112.816 14.922V14.922ZM133.696 4.591C133.353 4.447 132.933 4.39 132.435 4.418V4.418C131.195 4.49 129.966 4.811 128.747 5.381 127.536 5.95 126.953 6.62 126.997 7.39V7.39C127.029 7.942 127.304 8.37 127.821 8.675 128.337 8.98 129.146 9.306 130.246 9.653V9.653C131.432 10.056 132.398 10.444 133.144 10.818 133.884 11.192 134.546 11.759 135.13 12.518 135.714 13.271 136.041 14.253 136.111 15.466V15.466C136.226 17.456 135.494 19.03 133.913 20.188 132.332 21.346 130.159 22.006 127.392 22.166V22.166C126.043 22.244 124.774 22.113 123.585 21.771 122.402 21.423 121.455 20.944 120.743 20.336 120.03 19.721 119.625 19.098 119.527 18.468V18.468C119.489 17.807 119.75 17.245 120.311 16.782 120.866 16.319 121.664 15.989 122.705 15.792V15.792C122.764 16.342 123.084 16.843 123.664 17.295 124.244 17.747 124.92 18.094 125.693 18.337 126.474 18.585 127.14 18.694 127.692 18.662V18.662C128.632 18.607 129.472 18.302 130.213 17.746 130.96 17.19 131.314 16.568 131.274 15.88V15.88C131.2 14.606 129.912 13.668 127.408 13.068V13.068C125.807 12.689 124.554 12.013 123.65 11.04 122.753 10.066 122.271 9.014 122.206 7.883V7.883C122.076 5.641 122.998 3.97 124.972 2.871 126.945 1.773 129.506 1.132 132.655 0.949V0.949C134.42 0.847 135.798 0.976 136.79 1.335 137.781 1.695 138.307 2.386 138.366 3.408V3.408C138.406 4.096 138.186 4.718 137.705 5.272 137.224 5.826 136.514 6.131 135.573 6.185V6.185C134.749 6.233 134.214 6.202 133.968 6.094 133.729 5.984 133.587 5.777 133.542 5.472V5.472C133.527 5.2 133.578 4.906 133.696 4.591ZM143.073 19.023C143.029 19.183 142.512 20.654 141.523 23.435 140.527 26.208 139.856 27.955 139.508 28.674V28.674C139.369 28.962 139.014 29.152 138.442 29.245 137.876 29.345 137.471 29.383 137.226 29.358V29.358C136.622 29.297 136.139 29.052 135.778 28.624 135.416 28.196 135.261 27.597 135.312 26.827V26.827L139.41 15.265C140.95 11.058 142.231 7.462 143.255 4.479V4.479C143.272 4.309 143.222 3.858 143.104 3.126V3.126C143.068 2.676 143.028 2.254 142.986 1.858 142.943 1.47 142.915 1.175 142.901 0.975V0.975C142.998 0.628 143.313 0.368 143.845 0.196 144.376 0.03 144.859-0.03 145.294 0.014V0.014C145.959 0.082 146.591 0.383 147.188 0.917 147.786 1.451 148.092 2.051 148.106 2.718V2.718L147.875 3.776C149.275 2.36 150.935 1.751 152.857 1.946V1.946C154.432 2.106 155.752 2.624 156.815 3.501 157.88 4.371 158.649 5.478 159.123 6.823 159.597 8.161 159.756 9.601 159.599 11.142V11.142C159.389 13.207 158.795 15.109 157.815 16.848 156.829 18.579 155.482 19.924 153.772 20.883 152.063 21.834 150.081 22.195 147.827 21.966V21.966C147.107 21.893 146.208 21.558 145.13 20.961 144.051 20.364 143.366 19.718 143.073 19.023ZM144.89 13.908C144.802 14.228 144.751 14.459 144.737 14.602V14.602C144.694 15.291 144.86 15.918 145.235 16.485 145.603 17.05 146.06 17.509 146.608 17.859 147.163 18.204 147.63 18.395 148.011 18.434V18.434C149.226 18.558 150.343 18.205 151.36 17.375 152.37 16.551 153.192 15.482 153.827 14.168 154.461 12.853 154.842 11.578 154.967 10.342V10.342C155.085 9.188 154.88 8.131 154.353 7.172 153.826 6.213 153.094 5.685 152.157 5.59V5.59C151.111 5.484 150.229 5.624 149.511 6.01 148.785 6.396 147.951 7.015 147.006 7.866V7.866ZM165.481 25.144C162.863 24.445 161.089 23.414 160.16 22.05 159.238 20.688 159.009 19.136 159.474 17.395V17.395C160.152 14.856 161.412 12.674 163.256 10.848 165.106 9.025 167.263 7.76 169.726 7.054 172.189 6.348 174.651 6.323 177.111 6.98V6.98C178.608 7.379 179.752 8.137 180.542 9.252 181.339 10.369 181.52 11.742 181.085 13.371V13.371C180.835 14.307 180.327 14.995 179.56 15.433 178.8 15.873 177.796 16.177 176.55 16.346 175.304 16.515 173.31 16.693 170.569 16.88V16.88C168.093 17.025 166.078 17.162 164.525 17.291V17.291C164.314 17.659 164.151 18.057 164.037 18.485V18.485C163.836 19.237 163.995 19.898 164.514 20.467 165.035 21.03 165.873 21.466 167.027 21.774V21.774C167.746 21.966 168.612 22.041 169.626 22.001 170.642 21.954 171.329 21.735 171.688 21.343V21.343C173.04 19.931 174.092 19.325 174.843 19.526V19.526C175.938 19.818 176.625 20.224 176.903 20.743 177.181 21.262 177.266 21.779 177.156 22.294V22.294C176.606 23.059 175.747 23.751 174.578 24.372 173.409 24.992 172.028 25.39 170.434 25.565 168.84 25.741 167.189 25.6 165.481 25.144ZM166.637 13.902C169.511 13.751 171.9 13.533 173.805 13.251 175.715 12.976 176.767 12.476 176.961 11.751V11.751C177.045 11.434 176.94 11.127 176.645 10.83 176.348 10.538 176.002 10.34 175.606 10.234V10.234C174.802 10.02 173.803 10.082 172.611 10.42 171.417 10.766 170.261 11.259 169.143 11.9 168.023 12.548 167.188 13.215 166.637 13.902ZM187.522 11.348C187.482 11.24 187.485 11.136 187.53 11.036V11.036C187.647 10.782 188.019 10.701 188.645 10.794 189.277 10.89 190.083 11.163 191.063 11.614V11.614C191.968 12.031 192.528 12.57 192.741 13.232 192.955 13.894 192.949 14.568 192.724 15.253V15.253L190.915 17.396C191.779 16.907 192.841 16.55 194.101 16.326 195.364 16.096 196.578 16.005 197.744 16.053 198.909 16.101 199.808 16.27 200.44 16.562V16.562C201.767 17.172 202.62 17.866 202.999 18.641 203.375 19.408 203.321 20.318 202.836 21.372V21.372C199.573 24.559 196.672 28.281 194.134 32.538V32.538L193.817 34.624C193.245 35.067 192.612 35.332 191.918 35.418 191.222 35.511 190.356 35.319 189.32 34.842V34.842C188.719 34.566 188.371 34.161 188.278 33.63 188.191 33.101 188.285 32.536 188.562 31.935V31.935C189.339 30.248 190.437 28.507 191.857 26.711 193.277 24.915 194.8 23.11 196.424 21.295V21.295C197.046 20.613 197.365 20.256 197.379 20.225V20.225C197.539 19.877 197.417 19.611 197.014 19.426V19.426C196.462 19.172 195.447 19.174 193.968 19.432 192.492 19.7 190.74 20.486 188.711 21.792 186.676 23.094 184.605 25.072 182.498 27.723V27.723C182.377 27.856 182.187 28.106 181.927 28.475 181.67 28.837 181.338 29.027 180.933 29.043 180.536 29.056 179.972 28.894 179.24 28.557V28.557C178.409 28.175 177.839 27.807 177.528 27.453 177.226 27.096 177.208 26.63 177.474 26.053V26.053C177.711 25.734 178.019 25.357 178.399 24.924V24.924C182.55 19.741 185.746 15.746 187.986 12.937V12.937ZM216.229 30.641C216.045 30.317 215.747 30.014 215.336 29.733V29.733C214.31 29.033 213.141 28.536 211.828 28.243 210.521 27.954 209.65 28.128 209.215 28.765V28.765C208.903 29.221 208.859 29.728 209.082 30.285 209.305 30.843 209.746 31.595 210.406 32.541V32.541C211.098 33.584 211.626 34.482 211.988 35.234 212.345 35.982 212.523 36.835 212.522 37.793 212.525 38.745 212.183 39.723 211.498 40.726V40.726C210.374 42.372 208.833 43.171 206.874 43.123 204.915 43.074 202.791 42.268 200.502 40.706V40.706C199.386 39.943 198.462 39.064 197.729 38.068 197.006 37.069 196.548 36.112 196.355 35.195 196.167 34.273 196.226 33.532 196.534 32.974V32.974C196.907 32.427 197.457 32.141 198.185 32.117 198.906 32.089 199.74 32.316 200.685 32.796V32.796C200.395 33.268 200.342 33.86 200.526 34.572 200.709 35.284 201.032 35.972 201.496 36.636 201.962 37.309 202.423 37.802 202.88 38.114V38.114C203.658 38.645 204.51 38.917 205.435 38.929 206.367 38.945 207.027 38.668 207.415 38.099V38.099C208.135 37.045 207.688 35.516 206.072 33.512V33.512C205.036 32.234 204.457 30.933 204.335 29.61 204.22 28.291 204.481 27.164 205.12 26.228V26.228C206.387 24.374 208.137 23.614 210.371 23.95 212.605 24.285 215.024 25.342 217.628 27.121V27.121C219.088 28.118 220.101 29.062 220.667 29.952 221.232 30.843 221.226 31.711 220.649 32.556V32.556C220.26 33.125 219.706 33.483 218.987 33.628 218.268 33.773 217.519 33.58 216.741 33.049V33.049C216.059 32.583 215.654 32.232 215.526 31.996 215.404 31.764 215.418 31.513 215.569 31.244V31.244C215.723 31.019 215.943 30.818 216.229 30.641ZM215.271 51.796C213.285 49.952 212.201 48.21 212.019 46.57 211.842 44.935 212.366 43.456 213.592 42.136V42.136C215.38 40.21 217.515 38.872 219.999 38.122 222.488 37.377 224.986 37.27 227.493 37.799 230 38.329 232.187 39.46 234.053 41.192V41.192C235.188 42.246 235.844 43.45 236.02 44.806 236.202 46.166 235.719 47.464 234.572 48.7V48.7C233.912 49.41 233.141 49.779 232.258 49.808 231.381 49.84 230.352 49.64 229.171 49.205 227.991 48.771 226.146 47.995 223.636 46.876V46.876C221.381 45.844 219.537 45.022 218.104 44.409V44.409C217.745 44.635 217.415 44.91 217.113 45.236V45.236C216.583 45.806 216.415 46.464 216.607 47.211 216.804 47.952 217.34 48.729 218.215 49.541V49.541C218.761 50.048 219.491 50.52 220.405 50.959 221.325 51.394 222.035 51.522 222.535 51.344V51.344C224.391 50.729 225.604 50.686 226.175 51.215V51.215C227.005 51.986 227.422 52.666 227.424 53.255 227.427 53.844 227.259 54.341 226.922 54.745V54.745C226.078 55.163 224.994 55.372 223.671 55.373 222.347 55.374 220.94 55.079 219.45 54.487 217.96 53.895 216.567 52.998 215.271 51.796ZM221.557 42.404C224.167 43.615 226.38 44.542 228.196 45.185 230.012 45.837 231.175 45.887 231.686 45.337V45.337C231.909 45.097 231.96 44.776 231.838 44.375 231.713 43.979 231.5 43.641 231.199 43.363V43.363C230.589 42.796 229.678 42.384 228.465 42.124 227.248 41.87 225.996 41.765 224.708 41.808 223.415 41.856 222.365 42.055 221.557 42.404Z" fill="#000000" data-fill-palette-color="primary"></path><path d="M0.435 139.42c0-5.824 4.721-10.545 10.544-10.544 5.824 0 10.545 4.721 10.545 10.544 0 5.824-4.721 10.545-10.545 10.545-5.824 0-10.545-4.721-10.544-10.545zM258.196 139.42c0-5.824 4.721-10.545 10.545-10.544 5.824 0 10.545 4.721 10.544 10.544 0 5.824-4.721 10.545-10.544 10.545-5.824 0-10.545-4.721-10.545-10.545z" fill="#000000" data-fill-palette-color="primary"></path></g></svg></g></svg></g></svg></g></svg></g><defs></defs></svg><rect width="279.72" height="279.72" fill="none" stroke="none" visibility="hidden"></rect></g></svg></g></svg>